<?xml version="1.0" encoding="utf-8"?>
<!-- Generator: Adobe Illustrator 16.0.0, SVG Export Plug-In . SVG Version: 6.00 Build 0)  -->
<!DOCTYPE svg PUBLIC "-//W3C//DTD SVG 1.1//EN" "http://www.w3.org/Graphics/SVG/1.1/DTD/svg11.dtd">
<svg version="1.1" id="Layer_1" xmlns="http://www.w3.org/2000/svg" xmlns:xlink="http://www.w3.org/1999/xlink" x="0px" y="0px"
	 width="159px" height="58px" viewBox="0 0 159 58" enable-background="new 0 0 159 58" xml:space="preserve">
<path d="M94.432,17.07c-0.487,0.76-1.328,1.288-2.281,1.526c-2.417,0.607-5.57-1.559-4.234-4.26c0.648-1.308,2.132-2.71,3.616-3.012
	c2.277-0.461,3.285,2.293,3.348,4.091C94.904,16.045,94.735,16.602,94.432,17.07 M105.855,33.42
	c-0.034,0.42-0.065,0.838-0.091,1.255c-0.16,2.763-0.246,5.636,2.767,6.815c4.938,1.106,7.754-3.185,7.754-3.185
	c3.37-5.539,1.245-16.2,1.245-16.2c-0.626-3.809-1.429-7.603-2.322-11.354c-0.757-3.184-1.598-6.311-2.818-9.346
	c-0.476-1.184-1.338-1.761-2.635-1.318c-1.328,0.452-0.947,2.827-1.022,3.892c-0.137,1.978-0.217,3.961-0.365,5.938
	c-0.091,1.227-0.069,3.745-0.636,4.239c-0.801,0.698-5,1.177-6.307,0.727c-0.586-0.202-0.893-1.209-1.155-1.715
	c-1.483-2.849-3.43-6.628-7.137-6.536c-4.107,0.103-7.771,3.119-10.175,6.22c-2.683,3.459-2.659,7.355-0.009,10.9
	c0.139,0.185,0.282,0.364,0.429,0.542c0.841,1.006,1.852,1.863,2.977,2.532c0,0,6.974,3.91,13.125-3.063
	c0.613-0.693,1.034-1.385,1.596-2.276c0.795-0.262,1.85-0.209,2.647-0.066c0.843,0.152,3.51,0.588,3.648,1.705
	c0.071,0.57-0.084,1.123-0.179,1.674c-0.23,1.36-0.553,2.699-0.765,4.069C106.193,30.379,105.988,31.897,105.855,33.42
	 M135.286,38.572c2.938,0.194,5.858,0.666,8.709,1.408c1.695,0.44,5.251,0.923,5.896,2.907c0.359,1.104,0.182,2.228,0.182,3.36
	c0,1.838-0.061,3.327,2.144,3.519c0.912,0.08,1.983,0.084,2.881-0.051c1.012-0.151,2.485-0.431,3.191-1.259
	c0.937-1.098,0.767-2.658,0.499-4.099c-0.106-0.568-0.228-1.119-0.302-1.615c-0.36-2.412-0.435-5.87-2.253-7.739
	c-1.391-1.43-4.006-1.906-5.899-2.146c-1.324-0.166-2.653-0.286-3.982-0.401c-0.952-0.083-2.294,0.11-3.1-0.5
	c-0.729-0.554-0.729-0.889-0.775-1.715c-0.045-0.8-0.162-1.958,0.529-2.573c0.429-0.382,0.69-0.475,1.26-0.475
	c1.34-0.001,2.652,0.118,3.976,0.179c2.08,0.095,4.108,0.551,6.191,0.685c0.914,0.06,2.093,0.203,2.926-0.271
	c1.788-1.017-0.15-5.69-1.459-6.461c-0.904-0.531-2.044-0.54-3.059-0.637c-8.302-0.79-16.395,0.25-25.119,0.932
	c-1.495,0.118-3.044,0.382-4.407,1.057c-1.006,0.499-1.793,1.394-1.432,2.568c0.261,0.855,0.9,1.543,1.558,2.12
	c0.607,0.529,1.353,1.229,2.167,1.388c1.158,0.224,2.351-0.056,3.478-0.323c1.361-0.322,2.687-0.622,4.095-0.653
	c0.683-0.015,1.47-0.059,2.081,0.27c0.822,0.439,0.594,1.347,0.469,2.151c-0.084,0.539-0.247,1.02-0.815,1.293
	c-0.629,0.303-1.377,0.213-2.043,0.205c-0.878-0.008-1.757,0.011-2.63,0.084c-0.987,0.083-2.108,0.134-2.915,0.787
	c-1.55,1.261-1.755,4.506,0.103,5.568c1.089,0.623,2.438,0.646,3.652,0.521C132.485,38.512,133.871,38.479,135.286,38.572
	 M147.176,12.349c-0.302,0.066-0.608,0.131-0.916,0.164c-0.506,0.056-1.017,0.055-1.524,0.081c-1.646,0.086-3.383,0.174-5.082,0.23
	c-2.11,0.072-4.239,0.091-6.334-0.207c-0.444-0.063-0.816-0.171-1.058-0.58c-0.343-0.587-0.402-1.272-0.47-1.929
	c-0.041-0.385-0.068-0.691,0.063-1.066c0.182-0.523,0.792-0.585,1.256-0.606c1.555-0.072,3.112-0.04,4.666,0.044
	c2.916,0.157,5.837,0.424,8.736,0.767c0.313,0.036,0.868,0.161,1.102,0.381c0.274,0.257,0.291,0.671,0.323,1.018
	C147.996,11.306,147.969,12.17,147.176,12.349 M154.292,7.306c-0.217-1.851-2.556-2.447-2.556-2.447
	c-2.669-0.612-5.369-1.071-8.082-1.435c-2.637-0.355-5.285-0.618-7.937-0.813c-0.916-0.067-4.796-0.367-5.242-0.438
	c-0.055-0.01-0.112-0.02-0.157-0.052c-0.085-0.062-0.101-0.181-0.132-0.281c-0.122-0.412-0.553-0.599-0.942-0.661
	c-0.606-0.097-1.261-0.04-1.873-0.011c-1.115,0.056-2.554,0.171-3.05,1.352c-0.021,0.054-0.042,0.107-0.06,0.163
	c-0.353,1.109-0.333,2.167-0.447,3.329c-0.099,1.019-0.119,2.017-0.101,3.015c0.048,2.374,0.486,6.424,2.355,8.112
	c1.232,1.113,3.219,0.991,4.774,0.931c4.9-0.191,11.218-0.345,15.96-0.404c2.813-0.034,7.007,0.555,7.811-2.912
	C155.114,12.601,154.546,9.46,154.292,7.306 M46.076,10.779c0.006,0,0.015,0,0.021,0.001C46.085,10.779,46.083,10.779,46.076,10.779
	 M46.039,10.775c0,0,0.016,0.002,0.037,0.004C46.057,10.777,46.039,10.775,46.039,10.775 M19.274,18.014l-0.001,0.01
	c-0.693-1.938-2.106-3.733-3.029-5.479c-0.539-1.02-0.796-2.348-0.796-3.489c0,0-0.008-0.145-0.032-0.376V8.677
	c-0.007-1.062-0.333-2.482-0.698-3.44c-0.243-0.638-1.271-1.118-1.933-1.37c-0.06-0.026-0.124-0.045-0.184-0.068
	c-0.233-0.081-0.389-0.126-0.389-0.126s-1.121-0.298-2.28,0.436c-1.77,1.119-3.211,2.682-4.448,4.354
	c-1.189,1.61-2.261,3.315-3.138,5.118c-0.418,0.862-0.748,1.761-1.177,2.616c-0.446,0.89-0.91,1.784-1.083,2.775
	c-0.2,1.154-0.043,2.345,0.338,3.447c0.219,0.635,0.641,2.179,1.45,2.275c1.229,0.146,2.117-1.286,2.76-2.119
	c0.908-1.175,1.616-2.449,2.421-3.688c0.572-0.879,1.325-2.08,2.309-2.539c0,0,0.331-0.237,0.899,0.97c0,0,2.248,3.965,3.563,5.667
	l0.003,0.001c0.328,0.445,0.75,0.986,1.885,1.439c1.134,0.454,2.018-0.299,2.018-0.299l-0.001-0.007
	c0.06-0.041,0.12-0.077,0.179-0.125c0.127-0.106,0.245-0.222,0.358-0.34v0.009c0,0,0.023-0.025,0.062-0.066
	c0.009-0.008,0.015-0.016,0.021-0.022c0.327-0.355,1.518-1.736,1.474-2.944C19.776,19.23,19.274,18.014,19.274,18.014 M36.788,8.731
	c-0.319,0.005-0.641,0.027-0.944,0.042c-0.556,0.025-1.23,0.187-1.774,0.022c-0.678-0.203-0.604-3.608-0.631-4.163
	c0,0-0.05-1.024-0.479-1.742c-0.428-0.718-2.412-0.774-2.412-0.771c-0.316-0.023-0.636-0.019-0.946,0.018
	c-0.209,0.024-0.413,0.062-0.61,0.108c-0.998,0.242-1.201,0.838-1.297,1.931c0,0-0.803,10.621,0.236,15.768
	c0.416,2.056,2.688,3.037,4.578,3.163c1.502,0.1,1.338-2.013,1.336-2.98c-0.007-2.022,0.106-1.722,0.102-3.743
	c-0.002-0.641-0.12-1.5,0.479-1.947c0.443-0.333,0.963-0.217,1.479-0.243c0.81-0.042,1.792,0.092,2.512-0.29
	c0.879-0.466,0.845-1.442,0.798-2.346c-0.037-0.714-0.014-1.919-0.662-2.396C38.051,8.793,37.421,8.724,36.788,8.731 M30.278,31.865
	v0.012V31.865z M30.276,31.865L30.276,31.865L30.276,31.865L30.276,31.865z M29.53,34.49c-0.327,0.484-3.736,0.799-5.474,0.872
	c-0.044,0.003-0.081,0-0.122,0.001c-0.36,0.021-0.724,0.031-1.083,0.045c-0.188,0.012-0.364,0.026-0.563,0.037
	c-5.83,0.319-11.463-0.196-11.807-0.507c-0.171-0.154-0.362-0.542-0.514-0.893c-0.024-0.054-0.047-0.108-0.068-0.164
	c-0.088-0.216-0.154-0.394-0.181-0.468C9.71,33.391,9.702,33.37,9.702,33.37h0.002c-0.06-0.17-0.104-0.352-0.05-0.512
	c0.103-0.309,0.553-0.232,0.873-0.224c0.244,0.006,0.483,0.03,0.727,0.042c0.083-0.008,0.177-0.009,0.293,0.001
	c1.485,0.113,5.5,0.24,6.3,0.265c1.747,0.007,3.477-0.018,5.188-0.079c0.916-0.032,1.827-0.117,2.74-0.176
	c0,0,2.3-0.238,3.546-0.361c0.003,0,0.009-0.002,0.013-0.002c0.031,0,0.499,0.004,0.555,0.315v0.001
	c0.002,0.003,0.002,0.006,0.002,0.009C29.897,32.7,29.851,34.015,29.53,34.49 M36.304,33.071c0.062-1.953-0.315-4.065-1.829-5.152
	c-0.764-0.551-3.367-0.449-3.367-0.446c-0.893,0.001-2.066,0.084-2.882,0.168c-0.328,0.033-0.652,0.062-0.98,0.092
	c-2.148,0.155-4.3,0.271-6.453,0.336c-1.662,0.053-3.327,0.072-4.99,0.053c-1.174-0.016-2.347-0.051-3.519-0.12
	c-1.151-0.067-2.306-0.146-3.438-0.366c-0.204-0.04-0.402-0.094-0.605-0.14c-0.171-0.038-0.364-0.055-0.499-0.182
	c-0.08-0.075-0.201-0.294-0.271-0.378c-0.373-0.426-1.385-0.344-1.888-0.325c-0.939,0.033-2.491,0.188-3.034,1.092
	c-0.198,0.331-0.263,0.758-0.275,1.135c-0.067,1.901,0.254,3.52,0.592,5.23c0.248,1.254,0.645,2.454,1.146,3.602
	c0.534,1.218,1.059,2.292,2.589,2.598c4.218,0.844,8.673,1.161,12.997,0.923c0,0,8.186-0.286,13.453-1.617
	c0.707-0.18,1.39-0.58,1.888-1.177c0.675-0.808,0.89-1.934,1.091-2.938C36.165,34.76,36.277,33.931,36.304,33.071 M76.518,8.007
	c-0.214-0.954-0.443-1.904-0.688-2.851c-0.265-1.026-0.484-2.405-1.611-2.842c-0.482-0.188-0.92-0.113-1.407-0.045
	c-0.861,0.122-1.733,0.559-2.319,1.012c-0.504,0.413-0.771,0.675-0.913,1.157c-0.117,0.397,0.004,1.468,0.049,1.833
	c0.006,0.037,0.01,0.073,0.015,0.108c0.001,0.012,0.003,0.019,0.003,0.019c0.045,0.303,0.094,0.5,0.097,0.499
	c0.167,1.149,0.526,2.259,0.738,3.402c0.661,3.569,0.617,8.586,0.116,12.18c-0.456,2.606-0.045,4.297-0.045,4.297
	c0.822,2.196,3.429,0.962,3.429,0.962c2.791-0.961,3.568-2.881,3.568-2.881c0.642-1.585,0.414-3.647,0.365-5.32
	C77.813,16.064,77.276,11.393,76.518,8.007 M49.597,11.119c1.013,0.336-0.895,2.604-1.374,3.084
	c-1.247,1.253-2.647,2.332-3.869,3.611c-0.845,0.886-2.01,2.322-2.475,3.16c-1.035,1.864,1.485,3.612,3.09,4.56
	c0.59,0.35,1.338,0.157,1.803-0.313c1.031-1.045,1.853-2.303,2.78-3.438c0.815-0.999,1.634-2.019,2.546-2.932
	c0.973-0.974,2.164-2.019,3.517-1.08c0.844,0.585,1.568,1.353,2.363,2.003c0.975,0.795,1.958,1.582,2.938,2.368
	c0.839,0.673,1.707,1.559,2.696,2.007c0.184,0.083,0.443,0.193,0.655,0.196c0.875,0.015,1.536-0.782,1.999-1.428
	c0.501-0.699,1.146-1.557,1.245-2.433c0.034-0.29,0-0.563-0.081-0.818c-0.229-0.72-0.838-1.308-1.435-1.793
	c-2.194-1.792-4.501-3.493-6.774-5.179c-0.274-0.203-0.694-0.386-0.807-0.747c-0.286-0.907,1.021-0.684,1.571-0.695
	c1.204-0.026,2.393,0.235,3.594,0.288c1.861,0.083,1.772-1.876,1.422-3.145c-0.487-1.762-1.153-2.869-3.061-3.145
	c-5.801-0.838-11.62-0.606-17.457-0.606c-2.036,0-2.359,3.725-1.863,5.109c0.236,0.657,0.829,0.997,1.481,1.138
	c0.914,0.197,1.877,0.11,2.812,0.072C47.798,10.928,48.693,10.82,49.597,11.119 M78.154,36.092
	c-0.053-0.192-0.106-0.383-0.159-0.567c-0.314-1.107-0.973-2.08-2.126-2.403c-1.086-0.307-2.245-0.108-3.344,0.003
	c-0.558,0.056-1.373,0.148-2.305,0.259c0,0-0.007,0-0.008,0.002c-1.493,0.179-3.285,0.402-4.828,0.6
	c-2.224,0.252-4.625,0.481-5.814,0.461c-2.042-0.089-4.241-0.529-5.354-2.089c-1.202-1.686-0.365-4.133-1.913-5.647
	c-0.675-0.66-1.861-0.468-2.707-0.277c-1.255,0.286-2.367,1.01-2.986,2.16c-0.09,0.166-0.175,0.339-0.247,0.529
	c0,0-0.508,2.776,1.134,6.206c0.495,1.056,1.153,2.035,1.98,2.86c1.749,1.744,4.229,2.595,6.639,2.952l0.002,0.007
	c0,0,0.048,0.006,0.133,0.015c0.095,0.014,0.188,0.031,0.283,0.042c1.044,0.133,2.102,0.188,3.161,0.205
	c3.176,0.147,8.135,0.176,13.516-0.542c0.016-0.002,0.027-0.005,0.041-0.007c1.07-0.136,2.133-0.33,3.151-0.637
	c0.726-0.218,1.439-0.623,1.792-1.289C78.658,38.054,78.397,36.995,78.154,36.092 M43.431,52.996l-1.909-0.469
	c-0.365-0.087-0.667-0.191-0.667-0.618c0-0.695,0.962-0.731,1.156-0.731c1.269,0,1.356,0.7,1.394,0.996l0.024,0.183h1.957
	l-0.005-0.21c-0.009-1.012-0.709-2.729-3.252-2.729c-2.367,0-3.209,1.349-3.209,2.61c0,1.886,1.4,2.211,2.641,2.5l0.838,0.196
	c0.854,0.2,1.257,0.344,1.257,0.768c0,0.534-0.481,0.806-1.429,0.806c-1.174,0-1.437-0.576-1.447-1.061l-0.006-0.198h-1.976v0.203
	c0,0.661,0.257,2.819,3.55,2.819c0.55,0,3.287-0.134,3.287-2.764C45.635,53.745,44.52,53.264,43.431,52.996 M48.67,58.062h2.046
	v-8.229H48.67V58.062z M58.936,54.739l-2.801-4.907h-2.044v8.229h1.935v-5.044l2.887,5.044h1.96v-8.229h-1.937V54.739z
	 M69.356,54.93c-0.173,0.841-0.716,1.304-1.529,1.304c-1.606,0-1.731-1.884-1.731-2.46c0-2.346,1.326-2.53,1.731-2.53
	c1.197,0,1.406,0.753,1.532,1.203l0.043,0.148h2.012l-0.017-0.22c-0.107-1.426-1.273-2.957-3.583-2.957
	c-2.305,0-3.796,1.7-3.796,4.332c0,2.66,1.444,4.312,3.775,4.312c1.915,0,3.228-1.112,3.601-3.052l0.047-0.244h-2.054L69.356,54.93z
	 M76.577,54.654h3.811v-1.796h-3.811v-1.232h4.149v-1.795h-6.162v8.23h6.346v-1.799h-4.333V54.654z M91.505,49.832
	c-0.023,0.445-0.287,1.193-1.758,1.193h-0.43v1.518h1.904v5.518h1.995v-8.426h-1.7L91.505,49.832z M99.585,51.135
	c0.664,0,1.003,0.427,1.003,1.271c0,0.839-0.517,1.137-0.958,1.137c-0.456,0-0.977-0.146-0.977-1.264
	C98.654,51.28,99.237,51.135,99.585,51.135 M99.596,49.423c-1.84,0-2.938,1.152-2.938,3.082c0,1.349,0.907,2.712,2.634,2.712
	c0.535,0,0.979-0.128,1.315-0.37c-0.101,0.985-0.484,1.539-1.09,1.539c-0.418,0-0.653-0.204-0.715-0.597v-0.204h-2.006l0.021,0.226
	c0.146,1.367,1.201,2.251,2.689,2.251c0.73,0,3.117-0.313,3.117-4.313C102.625,50.877,101.606,49.423,99.596,49.423 M108.746,52.188
	c-0.535,0-0.892,0.106-1.157,0.235l0.181-1.118h3.294v-1.747h-4.79l-0.603,4.803l1.761,0.083l0.063-0.116
	c0.226-0.411,0.589-0.464,0.88-0.464c0.92,0,0.968,1.021,0.968,1.224c0,0.6-0.259,1.298-0.99,1.298c-0.542,0-0.85-0.308-0.915-0.91
	l-0.016-0.184h-1.983l0.011,0.216c0.085,1.765,1.477,2.553,2.813,2.553c2.303,0,3.116-1.659,3.116-3.084
	C111.376,53.145,110.053,52.188,108.746,52.188 M119.213,53.374c0.397-0.301,0.737-0.806,0.737-1.509
	c0-1.688-1.349-2.442-2.688-2.442c-1.789,0-2.856,1.039-2.856,2.778v0.207h1.881v-0.207c0-0.751,0.277-1.103,0.875-1.103
	c0.742,0,0.798,0.628,0.798,0.821c0,0.77-0.549,0.876-1.135,0.876h-0.456v1.542h0.206c0.98,0,1.588,0.156,1.588,0.932
	c0,0.822-0.504,1.116-0.978,1.116c-0.76,0-0.952-0.589-0.967-1.116l0.01-0.295h-1.959v0.206c0,1.829,1.091,2.881,2.993,2.881
	c1.732,0,2.938-1.147,2.938-2.792C120.2,54.144,119.618,53.606,119.213,53.374"/>
</svg>
